<?xml version="1.0" encoding="utf-8"?>
<!-- Generator: Adobe Illustrator 19.1.0, SVG Export Plug-In . SVG Version: 6.00 Build 0)  -->
<svg version="1.0" id="Layer_1" xmlns="http://www.w3.org/2000/svg" xmlns:xlink="http://www.w3.org/1999/xlink" x="0px" y="0px"
	 viewBox="0 0 16 16" style="enable-background:new 0 0 16 16;" xml:space="preserve">
<style type="text/css">
	.st0{fill:#333333;}
	.st1{fill:#F7931E;}
	.st2{fill:#585858;}
	.st3{fill:#808080;}
</style>
<path class="st0" d="M14.8,16H1.2C0.5,16,0,15.5,0,14.8V1.2C0,0.5,0.5,0,1.2,0h13.6C15.5,0,16,0.5,16,1.2v13.6
	C16,15.5,15.5,16,14.8,16z"/>
<g>
	<path class="st1" d="M12.9,8.9L8.8,7.2c-0.1,0,0-0.1,0-0.1l4.4,0.8c0,0,0.1,0,0,0.1L12.9,8.9C13,8.9,12.9,9,12.9,8.9z"/>
	<path class="st2" d="M15.1,6.7L9,6.7c-0.1,0-0.1-0.1,0-0.1l5.8-1.7c0,0,0.1,0,0.1,0L15.1,6.7C15.1,6.7,15.1,6.7,15.1,6.7z"/>
	<path class="st1" d="M3.1,8.9l4.1-1.7c0.1,0,0-0.1,0-0.1L2.8,7.9c0,0-0.1,0,0,0.1L3.1,8.9C3,8.9,3.1,8.9,3.1,8.9z"/>
	<path class="st2" d="M0.9,6.7l6.1,0c0.1,0,0.1-0.1,0-0.1L1.2,4.9c0,0-0.1,0-0.1,0L0.9,6.7C0.9,6.7,0.9,6.7,0.9,6.7z"/>
	<path class="st1" d="M8,9.8l0.3-0.1l-0.2,1.5c0,0.1-0.1,0.1-0.1,0L7.7,9.6L8,9.8C8,9.8,8,9.8,8,9.8z"/>
	<polygon class="st3" points="7.6,8.6 7.5,8.6 7.5,8.6 	"/>
	<polygon class="st3" points="8.5,8.6 8.5,8.6 8.4,8.6 	"/>
	<path class="st1" d="M8,5.6L7.2,6c0,0,0,0.1,0,0.1L8,6.5c0,0,0,0,0,0l0.8-0.4c0,0,0-0.1,0-0.1L8,5.6C8,5.6,8,5.6,8,5.6z"/>
	<path class="st1" d="M8.6,7.6C8.6,7.6,8.6,7.6,8.6,7.6L8.6,7.6l0,0.3L8.5,8.4L8.2,8.5L8,8.6l0,0c0,0,0,0,0,0l0,0L7.8,8.5L7.5,8.4
		L7.4,7.9l0-0.2l0-0.1c0,0,0,0,0,0l0.1,0.1l0.2,0.1L8,7.9c0,0,0,0,0,0l0.3-0.1L8.6,7.6L8.6,7.6z"/>
	<path class="st2" d="M8.5,8.6l0,0.2L8.3,9.4L8,9.6c0,0,0,0,0,0L7.7,9.4L7.6,8.8l0-0.2l0,0l0.2,0.1L8,8.8c0,0,0,0,0,0l0.2-0.1
		L8.5,8.6L8.5,8.6z"/>
</g>
</svg>
